<?xml version="1.0" encoding="utf-8"?>
<!-- Generator: Adobe Illustrator 24.3.0, SVG Export Plug-In . SVG Version: 6.00 Build 0)  -->
<svg version="1.1" id="Layer_1" xmlns="http://www.w3.org/2000/svg" xmlns:xlink="http://www.w3.org/1999/xlink" x="0px" y="0px"
	 viewBox="0 0 343.6 210.68" style="enable-background:new 0 0 343.6 210.68;" xml:space="preserve">
<style type="text/css">
	.st0{fill:#BC2026;}
	.st1{fill:#868686;}
</style>
<polygon class="st0" points="227.84,122.56 221.74,122.56 221.74,44.25 227.84,50.03 "/>
<rect x="35.85" y="3.84" class="st0" width="6.1" height="118.37"/>
<path class="st1" d="M221.75,122.18V43.99L181.6,3.84H82.55c-15.64,0-27.89,12.04-27.89,27.47v27.05c0,14.16,7.82,23.24,20.5,25.78
	l64.82,12.04c2.54,0.42,3.8,2.54,3.8,5.28v16.06c0,2.54-2.11,4.65-4.44,4.65H35.85V3.84H6.27v104.6l40.15,40.15h99.06
	c15.64,0,27.89-12.04,27.89-27.47V95.34c0-16.06-8.88-23.03-19.65-25.15L88.25,57.94c-2.32-0.42-4.01-2.11-4.01-5.49V34.9
	c0-2.54,2.11-4.65,4.44-4.65h103.49v73.45c0,3.03,1.2,5.94,3.35,8.08l33.45,33.45c2.14,2.14,5.05,3.35,8.08,3.35h100.29v-26.41
	H221.75z"/>
<g>
	<path class="st1" d="M6.27,172.96h6.73v27.85h11.92v5.51H6.27V172.96z"/>
	<path class="st1" d="M239.03,172.96h6.73v27.85h11.92v5.51h-18.65V172.96z"/>
	<rect x="27.95" y="172.59" class="st0" width="6.45" height="5.51"/>
	<rect x="27.95" y="181.18" class="st1" width="6.45" height="25.14"/>
	<path class="st1" d="M57.3,181.18l-6.31,25.14h-7.48l-6.5-25.14h6.73l3.6,17.99h0.09l3.41-17.99H57.3z"/>
	<path class="st1" d="M65.2,196.75c0,0.75,0.05,1.47,0.16,2.17c0.11,0.7,0.29,1.32,0.54,1.87c0.25,0.55,0.58,0.98,0.98,1.31
		c0.4,0.33,0.9,0.49,1.5,0.49c1.09,0,1.88-0.39,2.38-1.17c0.5-0.78,0.84-1.96,1.03-3.55h5.8c-0.13,2.93-0.9,5.16-2.34,6.68
		c-1.43,1.53-3.69,2.29-6.78,2.29c-2.34,0-4.16-0.39-5.47-1.17c-1.31-0.78-2.27-1.81-2.9-3.08c-0.62-1.28-1-2.71-1.15-4.3
		c-0.14-1.59-0.21-3.18-0.21-4.77c0-1.68,0.12-3.3,0.35-4.86c0.23-1.56,0.7-2.94,1.4-4.16s1.71-2.18,3.01-2.9
		c1.31-0.72,3.05-1.08,5.23-1.08c1.87,0,3.4,0.3,4.6,0.91c1.2,0.61,2.14,1.47,2.83,2.57c0.68,1.11,1.15,2.45,1.4,4.02
		c0.25,1.57,0.37,3.33,0.37,5.26v1.45H65.2V196.75z M71.6,188.36c-0.09-0.73-0.26-1.36-0.49-1.87c-0.23-0.51-0.56-0.9-0.98-1.17
		c-0.42-0.26-0.96-0.4-1.61-0.4c-0.65,0-1.19,0.15-1.61,0.44c-0.42,0.3-0.76,0.69-1.01,1.17c-0.25,0.48-0.43,1.02-0.54,1.61
		c-0.11,0.59-0.16,1.18-0.16,1.78v0.98h6.59C71.75,189.94,71.69,189.09,71.6,188.36z"/>
	<path class="st1" d="M98.14,196.89c0,0.78,0.06,1.49,0.19,2.13s0.36,1.18,0.7,1.61c0.34,0.44,0.8,0.78,1.38,1.03
		c0.58,0.25,1.3,0.37,2.17,0.37c1.03,0,1.96-0.33,2.78-1c0.83-0.67,1.24-1.71,1.24-3.11c0-0.75-0.1-1.39-0.3-1.94
		c-0.2-0.54-0.54-1.04-1-1.47s-1.08-0.83-1.85-1.19c-0.76-0.36-1.71-0.72-2.83-1.1c-1.5-0.5-2.79-1.04-3.88-1.64
		c-1.09-0.59-2-1.28-2.73-2.08c-0.73-0.79-1.27-1.71-1.61-2.76c-0.34-1.04-0.51-2.25-0.51-3.62c0-3.3,0.92-5.76,2.76-7.38
		c1.84-1.62,4.36-2.43,7.57-2.43c1.5,0,2.87,0.16,4.14,0.49c1.26,0.33,2.35,0.86,3.27,1.59c0.92,0.73,1.64,1.67,2.15,2.8
		c0.51,1.14,0.77,2.5,0.77,4.09v0.93h-6.45c0-1.59-0.28-2.81-0.84-3.67c-0.56-0.86-1.5-1.28-2.8-1.28c-0.75,0-1.37,0.11-1.87,0.33
		c-0.5,0.22-0.9,0.51-1.19,0.86c-0.3,0.36-0.5,0.77-0.61,1.24c-0.11,0.47-0.16,0.95-0.16,1.45c0,1.03,0.22,1.89,0.65,2.59
		c0.44,0.7,1.37,1.35,2.8,1.94l5.19,2.24c1.28,0.56,2.32,1.15,3.13,1.75c0.81,0.61,1.46,1.26,1.94,1.96c0.48,0.7,0.82,1.47,1,2.31
		c0.19,0.84,0.28,1.78,0.28,2.8c0,3.52-1.02,6.08-3.06,7.69c-2.04,1.6-4.88,2.41-8.53,2.41c-3.8,0-6.52-0.83-8.16-2.48
		c-1.64-1.65-2.45-4.02-2.45-7.1v-1.36h6.73V196.89z"/>
	<path class="st1" d="M124.64,173.99v7.2h3.74v4.39h-3.74v13.6c0,1,0.15,1.71,0.44,2.13c0.3,0.42,0.91,0.63,1.85,0.63
		c0.25,0,0.5-0.01,0.75-0.02c0.25-0.01,0.48-0.04,0.7-0.07v4.49c-0.72,0-1.41,0.02-2.08,0.07c-0.67,0.05-1.38,0.07-2.13,0.07
		c-1.25,0-2.27-0.09-3.06-0.26c-0.79-0.17-1.4-0.51-1.82-1.03c-0.42-0.51-0.71-1.19-0.86-2.03c-0.16-0.84-0.23-1.9-0.23-3.18v-14.39
		h-3.27v-4.39h3.27v-7.2H124.64z"/>
	<path class="st1" d="M136.79,181.18v3.36h0.09c0.65-1.21,1.45-2.19,2.38-2.92c0.94-0.73,2.07-1.1,3.41-1.1
		c0.19,0,0.38,0.01,0.58,0.02c0.2,0.02,0.4,0.04,0.58,0.07v6.17c-0.34-0.03-0.68-0.05-1-0.07c-0.33-0.02-0.66-0.02-1-0.02
		c-0.56,0-1.12,0.08-1.68,0.23c-0.56,0.16-1.07,0.41-1.54,0.77c-0.47,0.36-0.84,0.83-1.12,1.4c-0.28,0.58-0.42,1.28-0.42,2.13v15.1
		h-6.45v-25.14H136.79z"/>
	<path class="st1" d="M151.7,196.75c0,0.75,0.05,1.47,0.16,2.17c0.11,0.7,0.29,1.32,0.54,1.87c0.25,0.55,0.58,0.98,0.98,1.31
		c0.4,0.33,0.9,0.49,1.5,0.49c1.09,0,1.88-0.39,2.38-1.17c0.5-0.78,0.84-1.96,1.03-3.55h5.8c-0.13,2.93-0.9,5.16-2.34,6.68
		c-1.43,1.53-3.69,2.29-6.78,2.29c-2.34,0-4.16-0.39-5.47-1.17c-1.31-0.78-2.27-1.81-2.9-3.08c-0.62-1.28-1-2.71-1.15-4.3
		c-0.14-1.59-0.21-3.18-0.21-4.77c0-1.68,0.12-3.3,0.35-4.86c0.23-1.56,0.7-2.94,1.4-4.16c0.7-1.22,1.71-2.18,3.01-2.9
		c1.31-0.72,3.05-1.08,5.23-1.08c1.87,0,3.4,0.3,4.6,0.91c1.2,0.61,2.14,1.47,2.83,2.57c0.68,1.11,1.15,2.45,1.4,4.02
		c0.25,1.57,0.37,3.33,0.37,5.26v1.45H151.7V196.75z M158.1,188.36c-0.09-0.73-0.26-1.36-0.49-1.87c-0.23-0.51-0.56-0.9-0.98-1.17
		c-0.42-0.26-0.96-0.4-1.61-0.4c-0.65,0-1.19,0.15-1.61,0.44c-0.42,0.3-0.76,0.69-1.01,1.17c-0.25,0.48-0.43,1.02-0.54,1.61
		c-0.11,0.59-0.16,1.18-0.16,1.78v0.98h6.59C158.26,189.94,158.2,189.09,158.1,188.36z"/>
	<path class="st1" d="M167.78,188.29c0-1.46,0.23-2.69,0.7-3.67c0.47-0.98,1.1-1.78,1.89-2.38c0.79-0.61,1.73-1.04,2.8-1.31
		c1.07-0.26,2.22-0.4,3.43-0.4c1.93,0,3.49,0.19,4.67,0.56c1.18,0.37,2.1,0.9,2.76,1.59c0.65,0.69,1.1,1.5,1.33,2.45
		c0.23,0.95,0.35,1.99,0.35,3.11v13.23c0,1.18,0.05,2.1,0.16,2.76c0.11,0.65,0.32,1.36,0.63,2.1h-6.17
		c-0.22-0.4-0.38-0.83-0.49-1.28c-0.11-0.45-0.21-0.9-0.3-1.33h-0.09c-0.75,1.31-1.61,2.16-2.59,2.55
		c-0.98,0.39-2.25,0.58-3.81,0.58c-1.12,0-2.07-0.2-2.85-0.58c-0.78-0.39-1.4-0.93-1.87-1.61c-0.47-0.68-0.81-1.46-1.03-2.31
		c-0.22-0.86-0.33-1.71-0.33-2.55c0-1.18,0.12-2.2,0.37-3.06c0.25-0.86,0.63-1.59,1.14-2.2c0.51-0.61,1.17-1.11,1.96-1.52
		c0.79-0.4,1.75-0.76,2.87-1.08l3.64-0.98c0.97-0.25,1.64-0.59,2.01-1.03c0.37-0.44,0.56-1.08,0.56-1.92c0-0.97-0.23-1.72-0.68-2.27
		c-0.45-0.54-1.22-0.82-2.31-0.82c-1,0-1.75,0.3-2.24,0.89c-0.5,0.59-0.75,1.39-0.75,2.38v0.7h-5.8V188.29z M178.15,194.57
		c-0.5,0.2-0.95,0.35-1.36,0.44c-1.31,0.28-2.24,0.75-2.8,1.4c-0.56,0.65-0.84,1.54-0.84,2.66c0,0.97,0.19,1.79,0.56,2.48
		c0.37,0.68,1,1.03,1.87,1.03c0.44,0,0.89-0.07,1.36-0.21c0.47-0.14,0.9-0.37,1.28-0.68c0.39-0.31,0.71-0.72,0.96-1.22
		c0.25-0.5,0.37-1.09,0.37-1.78v-4.95C179.12,194.1,178.65,194.37,178.15,194.57z"/>
	<path class="st1" d="M196.47,181.18v2.57h0.09c0.81-1.15,1.72-1.98,2.73-2.48c1.01-0.5,2.22-0.75,3.62-0.75
		c1.5,0,2.75,0.34,3.76,1.03c1.01,0.69,1.69,1.68,2.03,2.99h0.09c0.5-1.34,1.3-2.34,2.41-3.01c1.11-0.67,2.42-1,3.95-1
		c2.15,0,3.73,0.65,4.74,1.94c1.01,1.29,1.52,3.15,1.52,5.58v18.27h-6.45v-17.57c0-1.06-0.19-1.87-0.58-2.43
		c-0.39-0.56-1.04-0.84-1.94-0.84c-1.03,0-1.85,0.34-2.45,1.03c-0.61,0.69-0.91,1.78-0.91,3.27v16.54h-6.45v-17.57
		c0-1.06-0.2-1.87-0.58-2.43c-0.39-0.56-1.04-0.84-1.94-0.84c-1.03,0-1.85,0.34-2.45,1.03c-0.61,0.69-0.91,1.78-0.91,3.27v16.54
		h-6.45v-25.14H196.47z"/>
	<rect x="263.58" y="172.59" class="st0" width="6.45" height="5.51"/>
	<rect x="263.58" y="181.18" class="st1" width="6.45" height="25.14"/>
	<path class="st1" d="M280.73,181.18v2.94h0.09c0.68-1.25,1.57-2.16,2.66-2.73c1.09-0.58,2.34-0.86,3.74-0.86
		c2.06,0,3.64,0.56,4.74,1.68c1.11,1.12,1.66,2.94,1.66,5.47v18.65h-6.45v-17.34c0-1.31-0.22-2.22-0.65-2.73
		c-0.44-0.51-1.14-0.77-2.1-0.77c-2.27,0-3.41,1.39-3.41,4.16v16.68h-6.45v-25.14H280.73z"/>
	<path class="st1" d="M303.44,196.75c0,0.75,0.05,1.47,0.16,2.17c0.11,0.7,0.29,1.32,0.54,1.87c0.25,0.55,0.58,0.98,0.98,1.31
		c0.4,0.33,0.9,0.49,1.5,0.49c1.09,0,1.88-0.39,2.38-1.17c0.5-0.78,0.84-1.96,1.03-3.55h5.8c-0.13,2.93-0.9,5.16-2.34,6.68
		c-1.43,1.53-3.69,2.29-6.78,2.29c-2.34,0-4.16-0.39-5.47-1.17c-1.31-0.78-2.27-1.81-2.9-3.08c-0.62-1.28-1-2.71-1.15-4.3
		c-0.14-1.59-0.21-3.18-0.21-4.77c0-1.68,0.12-3.3,0.35-4.86c0.23-1.56,0.7-2.94,1.4-4.16c0.7-1.22,1.71-2.18,3.01-2.9
		c1.31-0.72,3.05-1.08,5.23-1.08c1.87,0,3.4,0.3,4.6,0.91c1.2,0.61,2.14,1.47,2.83,2.57c0.68,1.11,1.15,2.45,1.4,4.02
		c0.25,1.57,0.37,3.33,0.37,5.26v1.45h-12.76V196.75z M309.85,188.36c-0.09-0.73-0.26-1.36-0.49-1.87c-0.23-0.51-0.56-0.9-0.98-1.17
		c-0.42-0.26-0.96-0.4-1.61-0.4c-0.65,0-1.19,0.15-1.61,0.44c-0.42,0.3-0.76,0.69-1.01,1.17c-0.25,0.48-0.43,1.02-0.54,1.61
		c-0.11,0.59-0.16,1.18-0.16,1.78v0.98h6.59C310,189.94,309.94,189.09,309.85,188.36z"/>
	<path class="st1" d="M324.29,198.94c0,1.09,0.29,1.97,0.86,2.64c0.58,0.67,1.41,1,2.5,1c1,0,1.79-0.25,2.38-0.75
		c0.59-0.5,0.89-1.25,0.89-2.24c0-0.81-0.23-1.43-0.7-1.85c-0.47-0.42-1.01-0.76-1.64-1l-4.53-1.64c-1.78-0.62-3.12-1.5-4.02-2.64
		c-0.9-1.14-1.36-2.59-1.36-4.37c0-1.03,0.17-2,0.51-2.92c0.34-0.92,0.89-1.72,1.64-2.41c0.75-0.68,1.71-1.23,2.87-1.64
		c1.17-0.4,2.58-0.61,4.23-0.61c2.93,0,5.09,0.62,6.5,1.87c1.4,1.25,2.1,3.01,2.1,5.28v1.03h-5.8c0-1.31-0.21-2.27-0.63-2.87
		c-0.42-0.61-1.16-0.91-2.22-0.91c-0.81,0-1.52,0.23-2.13,0.68c-0.61,0.45-0.91,1.13-0.91,2.03c0,0.62,0.19,1.18,0.58,1.68
		c0.39,0.5,1.13,0.92,2.22,1.26l3.88,1.31c2.02,0.68,3.46,1.58,4.3,2.69c0.84,1.11,1.26,2.61,1.26,4.51c0,1.34-0.23,2.5-0.7,3.48
		c-0.47,0.98-1.11,1.8-1.94,2.45c-0.83,0.65-1.81,1.12-2.94,1.4c-1.14,0.28-2.39,0.42-3.76,0.42c-1.81,0-3.31-0.17-4.51-0.51
		c-1.2-0.34-2.15-0.86-2.85-1.54c-0.7-0.68-1.19-1.52-1.47-2.5s-0.42-2.08-0.42-3.29v-0.89h5.79V198.94z"/>
</g>
</svg>
